<svg xmlns="http://www.w3.org/2000/svg" viewBox="0 0 496 278" width="496" height="278">
<style>text { font-family: 'Segoe UI', 'JetBrains Mono', monospace; }</style>
<defs>
  <radialGradient id="edgeGlow" cx="15%" cy="0%" r="80%">
    <stop offset="0%" stop-color="#0894b3" stop-opacity="0.10"/>
    <stop offset="100%" stop-color="#0894b3" stop-opacity="0"/>
  </radialGradient>
  <linearGradient id="areaFill" x1="0" y1="0" x2="0" y2="1">
    <stop offset="0%" stop-color="#0894b3" stop-opacity="0.32"/>
    <stop offset="100%" stop-color="#0894b3" stop-opacity="0"/>
  </linearGradient>
  <linearGradient id="ringGrad" x1="0%" y1="0%" x2="100%" y2="100%">
    <stop offset="0%" stop-color="#0894b3"/>
    <stop offset="100%" stop-color="#7c5cea"/>
  </linearGradient>
</defs>

  <rect x="0.5" y="0.5" width="495" height="277" rx="14" fill="#f9fafc" stroke="#dbe1ee"/>
  <rect x="0.5" y="0.5" width="495" height="277" rx="14" fill="url(#edgeGlow)" opacity="0.5"/>
  <g transform="translate(24, 22)">
    <polygon points="9,0 18,5 18,15 9,20 0,15 0,5" fill="none" stroke="#7c5cea" stroke-width="1.6"/>
    <circle cx="9" cy="10" r="2.6" fill="#7c5cea"/>
  </g>
  <text x="46" y="28" font-size="12.5" font-weight="800" letter-spacing="0.3" fill="#141a2e">Language Mix</text>
  <text x="46" y="41" font-size="8.5" letter-spacing="0.5" fill="#5b6788">across 7 public repos</text>
  <line x1="24" y1="52" x2="472" y2="52" stroke="#dbe1ee"/>
<g transform="translate(70, 100)">
  <circle r="46" fill="none" stroke="#e9ecf5" stroke-width="15"/>
  <circle cx="0" cy="0" r="46" fill="none" stroke="#DA5B0B" stroke-width="15" stroke-dasharray="86.48 202.55" stroke-dashoffset="72.26" transform="rotate(-90)"/><circle cx="0" cy="0" r="46" fill="none" stroke="#f1e05a" stroke-width="15" stroke-dasharray="76.11 212.91" stroke-dashoffset="-14.22" transform="rotate(-90)"/><circle cx="0" cy="0" r="46" fill="none" stroke="#3178c6" stroke-width="15" stroke-dasharray="51.23 237.80" stroke-dashoffset="-90.33" transform="rotate(-90)"/><circle cx="0" cy="0" r="46" fill="none" stroke="#3572A5" stroke-width="15" stroke-dasharray="36.00 253.02" stroke-dashoffset="-141.56" transform="rotate(-90)"/><circle cx="0" cy="0" r="46" fill="none" stroke="#563d7c" stroke-width="15" stroke-dasharray="28.11 260.91" stroke-dashoffset="-177.56" transform="rotate(-90)"/><circle cx="0" cy="0" r="46" fill="none" stroke="#e34c26" stroke-width="15" stroke-dasharray="10.77 278.26" stroke-dashoffset="-205.67" transform="rotate(-90)"/><circle cx="0" cy="0" r="46" fill="none" stroke="#8b949e" stroke-width="15" stroke-dasharray="0.32 288.70" stroke-dashoffset="-216.45" transform="rotate(-90)"/>
  <text y="-3" font-size="15" font-weight="800" fill="#141a2e" text-anchor="middle">30%</text>
  <text y="12" font-size="7.5" letter-spacing="0.3" fill="#5b6788" text-anchor="middle">Jupyter Not…</text>
</g>
<text x="150" y="86" font-size="9.5" font-weight="800" letter-spacing="0.4" fill="#5b6788">TOP LANGUAGE</text>
<text x="150" y="108" font-size="18" font-weight="700" fill="#141a2e">Jupyter Notebook</text>
<text x="150" y="126" font-size="9" fill="#5b6788">7 languages tracked across all owned repos</text>
<line x1="28" y1="128" x2="468" y2="128" stroke="#dbe1ee"/>

  <circle cx="33" cy="154" r="4" fill="#DA5B0B"/>
  <text x="44" y="158" font-size="10.5" fill="#141a2e">Jupyter Noteb…</text>
  <text x="44" y="172" font-size="8.5" fill="#5b6788">29.9%</text>
  <circle cx="180" cy="154" r="4" fill="#f1e05a"/>
  <text x="191" y="158" font-size="10.5" fill="#141a2e">JavaScript</text>
  <text x="191" y="172" font-size="8.5" fill="#5b6788">26.3%</text>
  <circle cx="326" cy="154" r="4" fill="#3178c6"/>
  <text x="337" y="158" font-size="10.5" fill="#141a2e">TypeScript</text>
  <text x="337" y="172" font-size="8.5" fill="#5b6788">17.7%</text>
  <circle cx="33" cy="194" r="4" fill="#3572A5"/>
  <text x="44" y="198" font-size="10.5" fill="#141a2e">Python</text>
  <text x="44" y="212" font-size="8.5" fill="#5b6788">12.5%</text>
  <circle cx="180" cy="194" r="4" fill="#563d7c"/>
  <text x="191" y="198" font-size="10.5" fill="#141a2e">CSS</text>
  <text x="191" y="212" font-size="8.5" fill="#5b6788">9.7%</text>
  <circle cx="326" cy="194" r="4" fill="#e34c26"/>
  <text x="337" y="198" font-size="10.5" fill="#141a2e">HTML</text>
  <text x="337" y="212" font-size="8.5" fill="#5b6788">3.7%</text>
  <circle cx="33" cy="234" r="4" fill="#8b949e"/>
  <text x="44" y="238" font-size="10.5" fill="#141a2e">Dockerfile</text>
  <text x="44" y="252" font-size="8.5" fill="#5b6788">0.1%</text>
</svg>