<svg xmlns="http://www.w3.org/2000/svg" viewBox="0 0 560 300" width="560" height="300">
<style>text { font-family: 'Segoe UI', 'JetBrains Mono', monospace; }</style>
<defs>
  <radialGradient id="edgeGlow" cx="15%" cy="0%" r="80%">
    <stop offset="0%" stop-color="#0894b3" stop-opacity="0.10"/>
    <stop offset="100%" stop-color="#0894b3" stop-opacity="0"/>
  </radialGradient>
  <linearGradient id="areaFill" x1="0" y1="0" x2="0" y2="1">
    <stop offset="0%" stop-color="#0894b3" stop-opacity="0.32"/>
    <stop offset="100%" stop-color="#0894b3" stop-opacity="0"/>
  </linearGradient>
  <linearGradient id="ringGrad" x1="0%" y1="0%" x2="100%" y2="100%">
    <stop offset="0%" stop-color="#0894b3"/>
    <stop offset="100%" stop-color="#7c5cea"/>
  </linearGradient>
</defs>
<filter id="dotGlow" x="-100%" y="-100%" width="300%" height="300%">
  <feGaussianBlur stdDeviation="1.4" result="b"/>
  <feMerge><feMergeNode in="b"/><feMergeNode in="SourceGraphic"/></feMerge>
</filter>

  <rect x="0.5" y="0.5" width="559" height="299" rx="14" fill="#f9fafc" stroke="#dbe1ee"/>
  <rect x="0.5" y="0.5" width="559" height="299" rx="14" fill="url(#edgeGlow)" opacity="0.5"/>
  <g transform="translate(24, 22)">
    <polygon points="9,0 18,5 18,15 9,20 0,15 0,5" fill="none" stroke="#0894b3" stroke-width="1.6"/>
    <circle cx="9" cy="10" r="2.6" fill="#0894b3"/>
  </g>
  <text x="46" y="28" font-size="12.5" font-weight="800" letter-spacing="0.3" fill="#141a2e">Hiten Sharma</text>
  <text x="46" y="41" font-size="8.5" letter-spacing="0.5" fill="#5b6788">@Hiten1896 · profile overview</text>
  <line x1="24" y1="52" x2="536" y2="52" stroke="#dbe1ee"/>
<g transform="translate(94, 128)">
  <circle r="54" fill="none" stroke="#e9ecf5" stroke-width="7"/>
  <circle r="54" fill="none" stroke="url(#ringGrad)" stroke-width="7" stroke-linecap="round"
    stroke-dasharray="339.29" stroke-dashoffset="0.00" transform="rotate(-90)"/>
  <text y="-4" font-size="30" font-weight="800" fill="#141a2e" text-anchor="middle">S</text>
  <text y="16" font-size="8" letter-spacing="0.6" fill="#5b6788" text-anchor="middle">TOP 2%</text>
</g>
<text x="94" y="212" font-size="9" letter-spacing="0.4" fill="#5b6788" text-anchor="middle">1447 CONTRIBUTIONS / YEAR</text>
<text x="300" y="56" font-size="9.5" font-weight="800" letter-spacing="0.4" fill="#5b6788">WEEKLY ACTIVITY &#183; LAST 20W</text>
<rect x="300.0" y="201.7" width="8.8" height="14.3" rx="4.4" fill="#0894b3" opacity="0.35"/><rect x="311.8" y="211.4" width="8.8" height="4.6" rx="4.4" fill="#0894b3" opacity="0.38"/><rect x="323.5" y="204.3" width="8.8" height="11.7" rx="4.4" fill="#0894b3" opacity="0.42"/><rect x="335.2" y="210.8" width="8.8" height="5.2" rx="4.4" fill="#0894b3" opacity="0.45"/><rect x="347.0" y="190.6" width="8.8" height="25.4" rx="4.4" fill="#0894b3" opacity="0.49"/><rect x="358.8" y="206.9" width="8.8" height="9.1" rx="4.4" fill="#0894b3" opacity="0.52"/><rect x="370.5" y="203.6" width="8.8" height="12.4" rx="4.4" fill="#0894b3" opacity="0.56"/><rect x="382.2" y="204.3" width="8.8" height="11.7" rx="4.4" fill="#0894b3" opacity="0.59"/><rect x="394.0" y="206.9" width="8.8" height="9.1" rx="4.4" fill="#0894b3" opacity="0.62"/><rect x="405.8" y="208.2" width="8.8" height="7.8" rx="4.4" fill="#0894b3" opacity="0.66"/><rect x="417.5" y="204.9" width="8.8" height="11.1" rx="4.4" fill="#7c5cea" opacity="0.69"/><rect x="429.2" y="210.1" width="8.8" height="5.9" rx="4.4" fill="#7c5cea" opacity="0.73"/><rect x="441.0" y="180.1" width="8.8" height="35.9" rx="4.4" fill="#7c5cea" opacity="0.76"/><rect x="452.8" y="190.6" width="8.8" height="25.4" rx="4.4" fill="#7c5cea" opacity="0.79"/><rect x="464.5" y="211.4" width="8.8" height="4.6" rx="4.4" fill="#7c5cea" opacity="0.83"/><rect x="476.2" y="203.6" width="8.8" height="12.4" rx="4.4" fill="#7c5cea" opacity="0.86"/><rect x="488.0" y="135.1" width="8.8" height="80.9" rx="4.4" fill="#7c5cea" opacity="0.90"/><rect x="499.8" y="66.0" width="8.8" height="150.0" rx="4.4" fill="#7c5cea" opacity="0.93"/><rect x="511.5" y="120.1" width="8.8" height="95.9" rx="4.4" fill="#7c5cea" opacity="0.97"/><rect x="523.2" y="173.6" width="8.8" height="42.4" rx="4.4" fill="#7c5cea" opacity="1.00"/>
<line x1="28" y1="224" x2="532" y2="224" stroke="#dbe1ee"/>

  <circle cx="33" cy="249" r="4" fill="#c9791a"/>
  <text x="44" y="253" font-size="9.5" font-weight="800" letter-spacing="0.4" fill="#5b6788">STARS</text>
  <text x="28" y="276" font-size="22" font-weight="700" fill="#141a2e">13</text>
  <text x="28" y="290" font-size="8.5" fill="#5b6788">across repos</text>
  <circle cx="159" cy="249" r="4" fill="#7c5cea"/>
  <text x="170" y="253" font-size="9.5" font-weight="800" letter-spacing="0.4" fill="#5b6788">PULL REQS</text>
  <text x="154" y="276" font-size="22" font-weight="700" fill="#141a2e">9</text>
  <text x="154" y="290" font-size="8.5" fill="#5b6788">1 reviews</text>
  <circle cx="285" cy="249" r="4" fill="#0894b3"/>
  <text x="296" y="253" font-size="9.5" font-weight="800" letter-spacing="0.4" fill="#5b6788">FOLLOWERS</text>
  <text x="280" y="276" font-size="22" font-weight="700" fill="#141a2e">9</text>
  <text x="280" y="290" font-size="8.5" fill="#5b6788">1.2y on GitHub</text>
  <circle cx="411" cy="249" r="4" fill="#d4459a"/>
  <text x="422" y="253" font-size="9.5" font-weight="800" letter-spacing="0.4" fill="#5b6788">REPOS</text>
  <text x="406" y="276" font-size="22" font-weight="700" fill="#141a2e">7</text>
  <text x="406" y="290" font-size="8.5" fill="#5b6788">0 forks</text>
</svg>